PathFileType	4	(X/Y/Z)	C:\Users\WrightLab\Desktop\Jo\P2_Trial13.trc
DataRate	CameraRate	NumFrames	NumMarkers	Units	OrigDataRate	OrigDataStartFrame	OrigNumFrames
100.00	100.00	       11	19	mm	100.00	355	       567
Frame#	Time	Headset_Front			Headset_Back			Headset_Left			Headset_Right			Left_Shoulder			Right_Shoulder			Sternum			C7			Left Elbow			Right Elbow			Left Wrist			Right Wrist			Left ASIS			Right ASIS			S2			Left Knee			Right Knee			Left Ankle			Right Ankle			
		X1	Y1	Z1	X2	Y2	Z2	X3	Y3	Z3	X4	Y4	Z4	X5	Y5	Z5	X6	Y6	Z6	X7	Y7	Z7	X8	Y8	Z8	X9	Y9	Z9	X10	Y10	Z10	X11	Y11	Z11	X12	Y12	Z12	X13	Y13	Z13	X14	Y14	Z14	X15	Y15	Z15	X16	Y16	Z16	X17	Y17	Z17	X18	Y18	Z18	X19	Y19	Z19	

355	3.540	243.43660	1433.77930	1387.79114	333.62848	1695.36719	1254.34619	395.78448	1576.62756	1359.74695	181.45172	1527.35742	1289.15576	515.04407	1477.74121	1232.17871	199.94833	1452.09045	1127.83521	347.33777	1338.91711	1231.62988	382.20837	1468.79370	1076.04895	708.43726	1160.70862	1225.32178	184.19077	1155.30457	948.03784	794.06335	963.70050	1252.47253	188.58720	904.19141	892.46948	405.62073	1055.18555	1238.01196	278.93411	1043.52844	1213.06494	406.69577	990.26416	967.63562	594.90869	473.63879	1059.09851	223.59853	599.02808	1206.92468	542.37421	145.75851	1010.78345	352.93060	219.58298	1286.71570	
356	3.550	240.47980	1432.92883	1395.95398	331.16275	1695.18262	1263.70435	393.00183	1575.30017	1369.10400	180.48862	1526.73511	1296.08459	513.49078	1476.75891	1241.51758	198.47641	1450.91467	1136.37952	346.11960	1338.42358	1241.15088	381.19186	1466.37952	1085.11572	706.38507	1160.22668	1238.32666	186.37126	1153.77734	956.46442	791.42267	966.12738	1273.10632	190.88739	903.47656	900.05554	403.68784	1054.74255	1250.05200	277.26419	1042.62451	1223.79211	406.17526	988.17664	978.36652	592.88666	472.44254	1066.42578	226.63187	592.36987	1210.28271	543.56238	145.57486	1012.88843	352.48886	206.45784	1301.63818	
357	3.560	237.47899	1432.17883	1403.70776	331.44763	1693.81433	1271.96753	390.98303	1574.18884	1377.58325	177.59676	1526.71216	1304.11865	511.38031	1475.81885	1250.04700	196.69125	1449.49927	1144.69189	343.54807	1337.78784	1250.60681	379.17145	1465.34265	1093.97437	703.16705	1158.28101	1249.72937	187.49353	1152.09436	965.01447	788.90625	971.81476	1293.93994	193.41266	901.56982	908.64276	402.39102	1054.31531	1261.13660	275.50589	1041.46960	1234.39624	405.97931	986.19305	990.72400	590.39355	472.01901	1074.35413	230.60924	586.26990	1213.69214	543.75903	145.86642	1015.48163	351.98709	193.58350	1316.54907	
358	3.570	234.47263	1431.25146	1411.37305	328.64868	1693.27405	1280.99377	388.33295	1573.24634	1385.99658	175.43118	1525.94385	1311.67712	509.63251	1475.14197	1258.00244	194.92108	1448.34387	1152.94556	341.47913	1337.25525	1260.29468	377.60135	1463.22827	1102.89575	701.19775	1158.93665	1261.84521	188.38243	1150.56409	974.12238	785.94025	975.83752	1313.34290	195.28246	900.28717	916.82617	400.21024	1052.93384	1273.09302	274.02652	1039.47034	1245.42615	405.06088	984.18243	1001.86304	588.92468	471.56000	1081.78918	234.61031	580.86859	1217.82605	543.60895	146.86189	1018.29297	348.54843	183.59483	1326.80872	
359	3.580	231.97377	1431.01697	1419.02759	327.52182	1692.61340	1288.92151	386.41217	1572.26270	1394.70752	173.27602	1526.04980	1319.38745	507.69339	1474.24194	1266.58435	192.71289	1447.23657	1161.29761	339.10013	1336.84814	1269.70642	375.53024	1461.59961	1111.27905	696.93958	1156.49573	1272.61890	188.70734	1148.22327	983.80115	782.67767	980.13403	1332.34241	196.60965	898.82855	926.32324	398.31052	1052.70667	1284.01221	272.00497	1038.15796	1256.68005	403.04242	981.57642	1014.50494	586.86407	471.83484	1088.97839	239.73296	576.53284	1222.19983	543.58728	145.59077	1021.23273	346.33694	174.78062	1334.42847	
360	3.590	229.12512	1430.50732	1427.47058	324.91739	1692.35608	1297.12378	383.57001	1571.61377	1402.70679	168.90523	1526.57080	1328.62073	505.04071	1473.73901	1274.75720	190.16933	1445.86670	1169.57800	337.12772	1336.63489	1278.85168	373.14362	1460.14624	1119.91394	691.08160	1153.06360	1283.29907	188.43141	1146.03076	993.82477	778.36078	983.26154	1348.85144	198.56912	896.16425	936.31458	396.70593	1051.70374	1295.96741	269.98969	1036.57153	1268.01807	401.19122	979.13153	1025.80090	584.93750	472.15662	1097.57471	245.33113	572.04346	1226.12573	544.02881	146.16249	1024.72314	344.28281	169.21744	1338.78003	
361	3.600	226.28242	1431.53674	1435.55603	322.88199	1691.39050	1304.61267	381.39005	1571.69019	1410.90186	166.81494	1526.30542	1336.71045	502.68057	1473.14990	1282.58728	187.47238	1445.08350	1178.03296	334.32990	1336.26025	1288.20667	370.47806	1458.86707	1128.21387	686.46686	1150.71655	1293.23145	187.19992	1143.74146	1004.24207	774.27362	987.60516	1368.02539	197.57265	895.01648	946.86298	394.24420	1051.03223	1306.79114	268.04608	1035.16309	1279.40417	398.55612	977.14429	1038.07715	581.96375	472.66501	1106.08606	249.99580	568.93201	1231.16675	544.29071	147.27722	1027.86670	342.59482	165.71483	1340.01221	
362	3.610	223.49800	1431.87769	1444.06677	321.00497	1692.30493	1312.51318	378.81622	1571.74268	1418.80786	163.87703	1527.01111	1346.10889	499.36401	1473.00977	1291.52466	185.01414	1443.76709	1186.12903	331.81882	1336.24475	1297.10461	367.92291	1458.03687	1136.27454	681.37274	1149.04846	1303.06494	185.30830	1140.79419	1014.86383	768.88342	991.28381	1383.10608	198.36241	892.54211	958.73468	391.99518	1050.66504	1318.57581	265.84576	1033.84314	1290.01953	395.77344	975.66418	1049.00867	578.60126	473.94391	1116.56409	254.55148	566.97028	1235.84009	544.87280	148.87396	1032.96631	342.34976	163.30432	1341.96606	
363	3.620	220.73112	1432.24011	1452.60901				375.95013	1572.52576	1426.72925	161.00873	1526.61987	1354.04419	496.97806	1473.87744	1298.81714	182.18178	1443.09570	1194.55408	329.36942	1336.69263	1305.72534	365.17661	1457.49243	1144.16943	675.48492	1147.47278	1313.00513	183.52324	1138.20081	1026.36011	763.15875	994.43256	1398.63220	197.94839	890.16632	969.97083	389.55084	1050.43542	1329.22363	263.62460	1032.80066	1300.17859	394.00513	974.13281	1059.56250	570.18866	477.18130	1132.65112	258.63266	567.27197	1242.05115	545.14447	151.09308	1039.11597	340.66144	161.25064	1344.04993	
364	3.630	217.59276	1433.54175	1461.83240				373.36938	1573.17102	1434.76404	157.53896	1528.65881	1364.50781	494.18985	1474.21423	1308.24426	180.10999	1443.17212	1202.73572	327.28030	1337.75977	1314.24500	363.07712	1457.75098	1152.60535	670.31982	1147.14795	1323.12549	180.78044	1135.35010	1037.54919	757.20361	998.12305	1412.69849	195.87279	887.52374	981.79309	387.37088	1049.44116	1339.21106	261.04449	1032.64294	1310.00842	392.88251	973.57910	1069.89648	559.02130	478.38049	1153.44397	261.70831	570.21619	1249.25818	545.92792	155.15112	1047.24573	339.24771	159.84694	1345.35742	
365	3.640	214.54454	1435.09949	1470.16663				370.30765	1574.13635	1442.40283	154.72676	1529.44495	1371.55933	491.43518	1475.20215	1316.70874	178.02914	1442.88391	1211.13123	325.48392	1338.13525	1322.53601	360.66165	1458.08826	1160.91687	664.68323	1147.41187	1334.12976	177.04871	1133.46887	1049.51880	750.65948	1000.51166	1426.11218	194.59044	885.20209	995.35089	384.18066	1049.90613	1349.23303	258.78088	1032.15991	1319.82727	391.79648	972.18042	1080.94702	546.65662	477.96530	1176.05933	265.35138	574.41919	1257.87488	546.79712	158.84793	1057.69092	337.36530	159.91965	1346.07068	
